# File created by Blade
# Date/Time:  Fri Jan 16 19:00:32 2015
#---------------------------------------------------------
:version 1.10
:name HOM
:units
  mass 1.0
  length 1.000000
  angle deg
:documentation
     Acclaim Skeleton File
:root
   axis xyz
   order TX TY TZ RX RY RZ
   position 0.000000 0.000000 0.000000
   orientation 0 0 0
:bonedata
   begin
      id 1
      name Spine_dum
      direction 0.000000 1.000000 0.000000
      length 7.067664
      axis 0.0 0.0 0.0 xyz
   end
   begin
      id 2
      name LeftUpLeg_dum
      direction 1.000000 0.000000 0.000000
      length 4.013002
      axis 0.0 0.0 0.0 xyz
   end
   begin
      id 3
      name RightUpLeg_dum
      direction -1.000000 0.000000 0.000000
      length 4.013002
      axis 0.0 0.0 0.0 xyz
   end
   begin
      id 4
      name Spine
      direction 0.000000 1.000000 0.000000
      length 0.000000
      axis 0.0 0.0 0.0 xyz
      dof rx ry rz
   end
   begin
      id 5
      name Spine_dum1
      direction 0.000000 1.000000 0.000000
      length 15.039886
      axis 0.0 0.0 0.0 xyz
   end
   begin
      id 6
      name Spine_dum2
      direction 0.000000 1.000000 0.000000
      length 10.530368
      axis 0.0 0.0 0.0 xyz
   end
   begin
      id 7
      name Spine_dum3
      direction 0.000000 1.000000 0.000000
      length 10.530368
      axis 0.0 0.0 0.0 xyz
   end
   begin
      id 8
      name Head
      direction 0.000000 1.000000 0.000000
      length 4.527550
      axis 0.0 0.0 0.0 xyz
      dof rx ry rz
   end
   begin
      id 9
      name LeftShoulder
      direction 1.000000 0.000000 0.000000
      length 7.028855
      axis 0.0 0.0 -90.0 xyz
      dof rx ry rz
   end
   begin
      id 10
      name LeftArm
      direction 1.000000 0.000000 0.000000
      length 10.797705
      axis 0.0 0.0 -90.0 xyz
      dof rx ry rz
   end
   begin
      id 11
      name LeftForeArm
      direction 1.000000 0.000000 0.000000
      length 7.907442
      axis 0.0 0.0 -90.0 xyz
      dof ry rz rx
   end
   begin
      id 12
      name LeftHand
      direction 0.000000 0.000000 0.000000
      length 0.000000
      axis 0.0 0.0 -90.0 xyz
      dof rx ry rz
   end
   begin
      id 13
      name LeftHand_dum1
      direction 0.000000 0.000000 0.000000
      length 0.000000
      axis 0.0 0.0 -90.0 xyz
   end
   begin
      id 14
      name LeftHand_dum2
      direction 1.000000 0.000000 0.000000
      length 3.937000
      axis 0.0 0.0 -90.0 xyz
   end
   begin
      id 15
      name LeftHandThumb1
      direction 0.000000 0.000000 1.000000
      length 3.937000
      axis 0.0 0.0 -90.0 xyz
      dof rx rz ry
   end
   begin
      id 16
      name RightShoulder
      direction -1.000000 0.000000 0.000000
      length 7.028855
      axis 0.0 0.0 90.0 xyz
      dof rx ry rz
   end
   begin
      id 17
      name RightArm
      direction -1.000000 0.000000 0.000000
      length 10.797705
      axis 0.0 0.0 90.0 xyz
      dof rx ry rz
   end
   begin
      id 18
      name RightForeArm
      direction -1.000000 0.000000 0.000000
      length 7.907442
      axis 0.0 0.0 90.0 xyz
      dof ry rz rx
   end
   begin
      id 19
      name RightHand
      direction 0.000000 0.000000 0.000000
      length 0.000000
      axis 0.0 0.0 90.0 xyz
      dof rx ry rz
   end
   begin
      id 20
      name RightHand_dum1
      direction 0.000000 0.000000 0.000000
      length 0.000000
      axis 0.0 0.0 90.0 xyz
   end
   begin
      id 21
      name RightHand_dum2
      direction -1.000000 0.000000 0.000000
      length 3.937000
      axis 0.0 0.0 90.0 xyz
   end
   begin
      id 22
      name RightHandThumb1
      direction 0.000000 0.000000 1.000000
      length 3.937000
      axis 0.0 0.0 90.0 xyz
      dof rx rz ry
   end
   begin
      id 23
      name LeftUpLeg
      direction 0.000000 -1.000000 0.000000
      length 16.899758
      axis 0.0 0.0 0.0 xyz
      dof rx ry rz
   end
   begin
      id 24
      name LeftLeg
      direction 0.000000 -1.000000 0.000000
      length 17.389183
      axis 0.0 0.0 0.0 xyz
      dof rx ry rz
   end
   begin
      id 25
      name LeftFoot
      direction 0.000000 -0.258819 0.965926
      length 4.924528
      axis 15.0 0.0 0.0 xyz
      dof rx ry rz
   end
   begin
      id 26
      name LeftToeBase
      direction 0.000000 0.000000 1.000000
      length 2.952750
      axis 0.0 0.0 0.0 xyz
      dof rx ry rz
   end
   begin
      id 27
      name RightUpLeg
      direction 0.000000 -1.000000 0.000000
      length 16.899758
      axis 0.0 0.0 0.0 xyz
      dof rx ry rz
   end
   begin
      id 28
      name RightLeg
      direction 0.000000 -1.000000 0.000000
      length 17.389183
      axis 0.0 0.0 0.0 xyz
      dof rx ry rz
   end
   begin
      id 29
      name RightFoot
      direction 0.000000 -0.258819 0.965926
      length 4.924528
      axis 15.0 0.0 0.0 xyz
      dof rx ry rz
   end
   begin
      id 30
      name RightToeBase
      direction 0.000000 0.000000 1.000000
      length 2.952750
      axis 0.0 0.0 0.0 xyz
      dof rx ry rz
   end
:hierarchy
   begin
      root Spine_dum LeftUpLeg_dum RightUpLeg_dum
      Spine_dum Spine
      LeftUpLeg_dum LeftUpLeg
      RightUpLeg_dum RightUpLeg
      Spine Spine_dum1 Spine_dum2 Spine_dum3
      Spine_dum1 Head
      Spine_dum2 LeftShoulder
      Spine_dum3 RightShoulder
      LeftShoulder LeftArm
      LeftArm LeftForeArm
      LeftForeArm LeftHand
      LeftHand LeftHand_dum1 LeftHand_dum2
      LeftHand_dum1 LeftHandThumb1
      RightShoulder RightArm
      RightArm RightForeArm
      RightForeArm RightHand
      RightHand RightHand_dum1 RightHand_dum2
      RightHand_dum1 RightHandThumb1
      LeftUpLeg LeftLeg
      LeftLeg LeftFoot
      LeftFoot LeftToeBase
      RightUpLeg RightLeg
      RightLeg RightFoot
      RightFoot RightToeBase
   end

# File created by Blade
# Date/Time:  Fri Jan 16 19:00:24 2015
# Frame Rate: 120.000 fps
#------------------------------------------------------
:FULLY-SPECIFIED
:DEGREES
1
root 18.493858 35.522719 -23.779018 -171.851319 -1.514686 -179.285540
Spine -19.068435 1.054472 0.012027
Head 6.639455 -1.667794 1.528770
LeftShoulder -12.589914 -26.875899 18.086617
LeftArm 7.252646 2.351876 -7.395404
LeftForeArm 8.845014 -0.000000 -0.631139
LeftHand -11.090898 -0.000000 -6.306282
LeftHandThumb1 -26.253704 0.000000 33.147579
RightShoulder -14.049139 -9.796178 -6.407852
RightArm 12.627445 38.191006 14.334026
RightForeArm -37.804137 -0.000000 6.128933
RightHand -9.543232 0.000000 7.536401
RightHandThumb1 -24.326973 -0.000000 -32.862282
LeftUpLeg 1.797350 9.049900 0.621243
LeftLeg -6.614800 -0.000000 0.000000
LeftFoot -20.940943 25.428877 -14.195426
LeftToeBase 26.014241 -0.000000 -0.000000
RightUpLeg 1.034522 -9.939600 1.557171
RightLeg -3.905912 -0.000000 0.000000
RightFoot -22.078567 -24.732567 15.933652
RightToeBase 23.220356 -0.000000 -0.000000
2
root 18.494055 35.523332 -23.778079 -171.857545 -1.504167 -179.281994
Spine -19.067269 1.067997 0.026427
Head 6.676786 -1.679950 1.505565
LeftShoulder -12.546852 -26.924923 18.067154
LeftArm 7.225348 2.378370 -7.361322
LeftForeArm 8.854899 -0.000000 -0.613487
LeftHand -11.068364 -0.000000 -6.294966
LeftHandThumb1 -26.253704 0.000000 33.147579
RightShoulder -14.030436 -9.771258 -6.418090
RightArm 12.555539 38.199614 14.268822
RightForeArm -37.855431 -0.000000 6.147733
RightHand -9.469680 0.000000 7.517032
RightHandThumb1 -24.326973 -0.000000 -32.862282
LeftUpLeg 1.804878 9.056780 0.623625
LeftLeg -6.617376 -0.000000 0.000000
LeftFoot -20.934894 25.428654 -14.207766
LeftToeBase 26.001106 -0.000000 -0.000000
RightUpLeg 1.032854 -9.930490 1.559463
RightLeg -3.895763 -0.000000 0.000000
RightFoot -22.088901 -24.716566 15.959690
RightToeBase 23.220981 -0.000000 -0.000000
3
root 18.493885 35.523751 -23.777155 -171.861630 -1.501031 -179.277588
Spine -19.070407 1.105084 0.021988
Head 6.717615 -1.707517 1.514872
LeftShoulder -12.476410 -26.906554 18.036846
LeftArm 7.230512 2.348440 -7.343348
LeftForeArm 8.823378 0.000000 -0.608822
LeftHand -11.066196 -0.000000 -6.255088
LeftHandThumb1 -26.253704 0.000000 33.147579
RightShoulder -14.034882 -9.765969 -6.424311
RightArm 12.490072 38.205333 14.225374
RightForeArm -37.880721 -0.000000 6.171025
RightHand -9.445185 -0.000000 7.535339
RightHandThumb1 -24.326973 -0.000000 -32.862282
LeftUpLeg 1.808455 9.058655 0.628358
LeftLeg -6.618637 -0.000000 0.000000
LeftFoot -20.931175 25.428473 -14.205968
LeftToeBase 26.030190 -0.000000 -0.000000
RightUpLeg 1.033447 -9.929628 1.563636
RightLeg -3.894479 -0.000000 0.000000
RightFoot -22.080874 -24.716999 15.960871
RightToeBase 23.173139 -0.000000 -0.000000
4
root 18.494535 35.523755 -23.776496 -171.865376 -1.488947 -179.272394
Spine -19.065663 1.111872 0.032407
Head 6.725096 -1.708104 1.506368
LeftShoulder -12.457702 -26.929124 18.050179
LeftArm 7.210578 2.331884 -7.337697
LeftForeArm 8.846464 -0.000000 -0.592432
LeftHand -11.085643 -0.000000 -6.249924
LeftHandThumb1 -26.253704 0.000000 33.147579
RightShoulder -14.041035 -9.756861 -6.437342
RightArm 12.508733 38.216154 14.238473
RightForeArm -37.886238 0.000000 6.169859
RightHand -9.447819 -0.000000 7.513699
RightHandThumb1 -24.326973 -0.000000 -32.862282
LeftUpLeg 1.811286 9.075680 0.633169
LeftLeg -6.616584 -0.000000 0.000000
LeftFoot -20.930068 25.426130 -14.195036
LeftToeBase 26.031699 -0.000000 -0.000000
RightUpLeg 1.033492 -9.906892 1.567429
RightLeg -3.890535 -0.000000 0.000000
RightFoot -22.077875 -24.734704 15.945559
RightToeBase 23.183006 -0.000000 -0.000000
5
root 18.495292 35.523981 -23.775501 -171.868892 -1.475952 -179.271441
Spine -19.066914 1.114258 0.038912
Head 6.758761 -1.721477 1.497994
LeftShoulder -12.431342 -26.926193 18.041226
LeftArm 7.202835 2.313131 -7.309797
LeftForeArm 8.842729 -0.000000 -0.589277
LeftHand -11.107240 -0.000000 -6.286564
LeftHandThumb1 -26.253704 0.000000 33.147579
RightShoulder -14.035670 -9.768644 -6.437754
RightArm 12.520214 38.194109 14.221017
RightForeArm -37.850319 -0.000000 6.164870
RightHand -9.551277 -0.000000 7.475817
RightHandThumb1 -24.326973 -0.000000 -32.862282
LeftUpLeg 1.816681 9.081426 0.634050
LeftLeg -6.619317 -0.000000 0.000000
LeftFoot -20.920028 25.423339 -14.201176
LeftToeBase 25.983215 -0.000000 -0.000000
RightUpLeg 1.036041 -9.896516 1.567267
RightLeg -3.891354 -0.000000 0.000000
RightFoot -22.076509 -24.717568 16.028846
RightToeBase 23.073881 -0.000000 -0.000000
6
root 18.495878 35.523973 -23.774634 -171.874123 -1.468293 -179.272553
Spine -19.060356 1.112778 0.039857
Head 6.781208 -1.692050 1.502668
LeftShoulder -12.414352 -26.938613 18.053658
LeftArm 7.192378 2.279188 -7.305258
LeftForeArm 8.865453 0.000000 -0.598789
LeftHand -11.087812 -0.000000 -6.276128
LeftHandThumb1 -26.253704 0.000000 33.147579
RightShoulder -14.022127 -9.766606 -6.442050
RightArm 12.493190 38.202868 14.191890
RightForeArm -37.917706 -0.000000 6.187098
RightHand -9.531517 0.000000 7.545567
RightHandThumb1 -24.326973 -0.000000 -32.862282
LeftUpLeg 1.824578 9.079912 0.634507
LeftLeg -6.624905 -0.000000 0.000000
LeftFoot -20.927171 25.434786 -14.203712
LeftToeBase 26.028543 -0.000000 -0.000000
RightUpLeg 1.037698 -9.891451 1.564360
RightLeg -3.891163 -0.000000 0.000000
RightFoot -22.088594 -24.723706 15.966038
RightToeBase 23.229778 -0.000000 -0.000000
7
root 18.496450 35.524257 -23.773499 -171.878206 -1.457704 -179.268611
Spine -19.053022 1.114830 0.049574
Head 6.793606 -1.688629 1.499353
LeftShoulder -12.397237 -26.964110 18.063823
LeftArm 7.172456 2.292136 -7.299946
LeftForeArm 8.874194 -0.000000 -0.600517
LeftHand -11.088283 -0.000000 -6.236354
LeftHandThumb1 -26.253704 0.000000 33.147579
RightShoulder -14.022610 -9.767769 -6.441290
RightArm 12.500107 38.185554 14.171971
RightForeArm -37.935384 -0.000000 6.160683
RightHand -9.459635 -0.000000 7.481960
RightHandThumb1 -24.326973 -0.000000 -32.862282
LeftUpLeg 1.826872 9.093202 0.638449
LeftLeg -6.621305 -0.000000 0.000000
LeftFoot -20.923374 25.432593 -14.202816
LeftToeBase 25.997886 -0.000000 -0.000000
RightUpLeg 1.036204 -9.895419 1.568568
RightLeg -3.884907 -0.000000 0.000000
RightFoot -22.083475 -24.704340 15.967687
RightToeBase 23.175877 -0.000000 -0.000000
8
root 18.496726 35.524392 -23.773207 -171.888344 -1.449859 -179.268667
Spine -19.040734 1.112608 0.052077
Head 6.807607 -1.686994 1.511045
LeftShoulder -12.387177 -26.965316 18.078173
LeftArm 7.163712 2.275751 -7.302984
LeftForeArm 8.875331 -0.000000 -0.598538
LeftHand -11.089025 -0.000000 -6.214433
LeftHandThumb1 -26.253704 0.000000 33.147579
RightShoulder -13.992454 -9.742642 -6.455953
RightArm 12.444761 38.120452 14.127376
RightForeArm -37.898452 -0.000000 6.169967
RightHand -9.503173 -0.000000 7.474290
RightHandThumb1 -24.326973 -0.000000 -32.862282
LeftUpLeg 1.843824 9.082328 0.639914
LeftLeg -6.633506 -0.000000 0.000000
LeftFoot -20.927260 25.453429 -14.211662
LeftToeBase 26.059292 -0.000000 -0.000000
RightUpLeg 1.046929 -9.900248 1.566315
RightLeg -3.888670 -0.000000 0.000000
RightFoot -22.072764 -24.697027 15.968388
RightToeBase 23.166279 -0.000000 -0.000000
9
root 18.497961 35.524742 -23.771770 -171.894924 -1.433423 -179.265070
Spine -19.030163 1.119707 0.058481
Head 6.822187 -1.695745 1.508904
LeftShoulder -12.360732 -26.984150 18.080793
LeftArm 7.133191 2.271062 -7.292524
LeftForeArm 8.867231 -0.000000 -0.587595
LeftHand -11.109287 -0.000000 -6.211947
LeftHandThumb1 -26.253704 0.000000 33.147579
RightShoulder -14.016188 -9.802200 -6.432748
RightArm 12.512583 38.128362 14.129797
RightForeArm -37.823311 -0.000000 6.130936
RightHand -9.513350 -0.000000 7.388829
RightHandThumb1 -24.326973 -0.000000 -32.862282
LeftUpLeg 1.852099 9.094542 0.644545
LeftLeg -6.636007 -0.000000 0.000000
LeftFoot -20.912778 25.453941 -14.200266
LeftToeBase 25.995919 -0.000000 -0.000000
RightUpLeg 1.049631 -9.881458 1.569166
RightLeg -3.892969 -0.000000 0.000000
RightFoot -22.066025 -24.698219 15.964096
RightToeBase 23.457814 -0.000000 -0.000000
10
root 18.499249 35.525153 -23.770128 -171.894410 -1.414389 -179.260741
Spine -19.026041 1.123635 0.065381
Head 6.825611 -1.692657 1.517067
LeftShoulder -12.346497 -26.983442 18.092571
LeftArm 7.114793 2.287292 -7.287335
LeftForeArm 8.822284 0.000000 -0.602090
LeftHand -11.090144 -0.000000 -6.217892
LeftHandThumb1 -26.253704 0.000000 33.147579
RightShoulder -14.036558 -9.856862 -6.396618
RightArm 12.578467 38.148578 14.112750
RightForeArm -37.815909 -0.000000 6.094540
RightHand -9.492249 -0.000000 7.351522
RightHandThumb1 -24.326973 -0.000000 -32.862282
LeftUpLeg 1.850873 9.115070 0.648158
LeftLeg -6.636463 -0.000000 0.000000
LeftFoot -20.914773 25.449443 -14.221940
LeftToeBase 25.979877 -0.000000 -0.000000
RightUpLeg 1.039787 -9.857720 1.573630
RightLeg -3.879420 -0.000000 0.000000
RightFoot -22.062779 -24.677790 15.960115
RightToeBase 23.205411 -0.000000 -0.000000
11
root 18.498885 35.525260 -23.767405 -171.906195 -1.378234 -179.260989
Spine -18.993026 1.160830 0.066127
Head 6.806446 -1.687132 1.524412
LeftShoulder -12.338897 -26.993071 18.090842
LeftArm 7.120700 2.276237 -7.284186
LeftForeArm 8.782273 0.000000 -0.615023
LeftHand -11.079232 -0.000000 -6.223884
LeftHandThumb1 -26.253704 0.000000 33.147579
RightShoulder -14.006579 -9.777776 -6.440271
RightArm 12.483938 38.081980 14.085616
RightForeArm -37.835683 -0.000000 6.133405
RightHand -9.468281 0.000000 7.341857
RightHandThumb1 -24.326973 -0.000000 -32.862282
LeftUpLeg 1.867066 9.136997 0.644389
LeftLeg -6.643201 -0.000000 0.000000
LeftFoot -20.911973 25.463527 -14.216829
LeftToeBase 26.007865 -0.000000 -0.000000
RightUpLeg 1.036249 -9.811287 1.566180
RightLeg -3.863846 -0.000000 0.000000
RightFoot -22.067735 -24.696869 15.984343
RightToeBase 23.170990 -0.000000 -0.000000
12
root 18.501159 35.526029 -23.766365 -171.899254 -1.383023 -179.256572
Spine -19.001373 1.143875 0.073958
Head 6.820233 -1.681692 1.523464
LeftShoulder -12.327164 -26.968276 18.096325
LeftArm 7.113550 2.246145 -7.285932
LeftForeArm 8.759441 -0.000000 -0.625043
LeftHand -11.063353 -0.000000 -6.225327
LeftHandThumb1 -26.253704 0.000000 33.147579
RightShoulder -14.036600 -9.845637 -6.390521
RightArm 12.565726 38.114765 14.064601
RightForeArm -37.796149 -0.000000 6.105491
RightHand -9.474958 -0.000000 7.362061
RightHandThumb1 -24.326973 -0.000000 -32.862282
LeftUpLeg 1.856761 9.124259 0.650988
LeftLeg -6.643090 -0.000000 0.000000
LeftFoot -20.907193 25.469223 -14.223234
LeftToeBase 26.004212 -0.000000 -0.000000
RightUpLeg 1.028517 -9.824001 1.577662
RightLeg -3.863968 -0.000000 0.000000
RightFoot -22.073873 -24.689484 16.049964
RightToeBase 23.033509 -0.000000 -0.000000
13
root 18.502167 35.525936 -23.764623 -171.896248 -1.378261 -179.252718
Spine -18.999209 1.136685 0.086394
Head 6.837826 -1.701245 1.513061
LeftShoulder -12.317201 -26.957924 18.103564
LeftArm 7.098039 2.240594 -7.290498
LeftForeArm 8.751981 0.000000 -0.638179
LeftHand -11.062890 0.000000 -6.203309
LeftHandThumb1 -26.253704 0.000000 33.147579
RightShoulder -13.997965 -9.788354 -6.438451
RightArm 12.486329 38.070382 14.053477
RightForeArm -37.817615 -0.000000 6.157976
RightHand -9.453136 -0.000000 7.381008
RightHandThumb1 -24.326973 -0.000000 -32.862282
LeftUpLeg 1.851388 9.131137 0.655065
LeftLeg -6.642976 -0.000000 0.000000
LeftFoot -20.916805 25.473496 -14.220969
LeftToeBase 26.034973 -0.000000 -0.000000
RightUpLeg 1.019150 -9.824272 1.583343
RightLeg -3.858978 -0.000000 0.000000
RightFoot -22.060849 -24.683506 15.951119
RightToeBase 23.246225 -0.000000 -0.000000
